<svg xmlns="http://www.w3.org/2000/svg" viewBox="0 0 400 120" width="400" height="120">
  <defs>
    <linearGradient id="bg" x1="0" y1="0" x2="1" y2="1">
      <stop offset="0%" stop-color="#1a1a2e"/>
      <stop offset="100%" stop-color="#16213e"/>
    </linearGradient>
    <linearGradient id="accent" x1="0" y1="0" x2="1" y2="0">
      <stop offset="0%" stop-color="#e94560"/>
      <stop offset="100%" stop-color="#f5a623"/>
    </linearGradient>
  </defs>
  <rect width="400" height="120" rx="16" fill="url(#bg)"/>
  <!-- Playlist icon bars -->
  <g transform="translate(24, 26)">
    <rect x="0" y="0" width="48" height="6" rx="3" fill="#e94560"/>
    <rect x="0" y="14" width="48" height="6" rx="3" fill="#f5a623" opacity="0.8"/>
    <rect x="0" y="28" width="36" height="6" rx="3" fill="#e94560" opacity="0.6"/>
    <rect x="0" y="42" width="48" height="6" rx="3" fill="#f5a623" opacity="0.5"/>
    <rect x="0" y="56" width="28" height="6" rx="3" fill="#e94560" opacity="0.4"/>
    <!-- Play button -->
    <polygon points="58,31 76,24 76,38" fill="#f5a623" opacity="0.9"/>
  </g>
  <!-- Sparkle / AI star -->
  <g transform="translate(100, 22)">
    <polygon points="12,0 15,9 24,12 15,15 12,24 9,15 0,12 9,9" fill="#f5a623" opacity="0.85"/>
  </g>
  <!-- Text -->
  <text x="144" y="52" font-family="system-ui, -apple-system, sans-serif" font-weight="700" font-size="28" fill="#ffffff">subpas</text>
  <text x="144" y="80" font-family="system-ui, -apple-system, sans-serif" font-weight="400" font-size="12" fill="#8888aa">YouTube Subs &amp; Playlists Manager</text>
  <text x="144" y="98" font-family="system-ui, -apple-system, sans-serif" font-weight="400" font-size="10" fill="#555577">classified by AI · powered by Gemini</text>
</svg>
